<?xml version="1.0" encoding="UTF-8"?>
<svg xmlns="http://www.w3.org/2000/svg" viewBox="0 0 500 180">
  <defs>
    <style>
      .cls-1, .cls-2 {
        opacity: .33;
      }

      .cls-1, .cls-2, .cls-3 {
        mix-blend-mode: overlay;
      }

      .cls-1, .cls-4, .cls-5, .cls-6 {
        fill: #ffc916;
      }

      .cls-4 {
        mix-blend-mode: multiply;
      }

      .cls-3, .cls-5 {
        opacity: .5;
      }

      .cls-7 {
        isolation: isolate;
      }

      .cls-8 {
        fill: #282828;
      }

      .cls-9 {
        fill: #1b1b1a;
      }

      .cls-10 {
        fill: none;
        stroke: #af8100;
        stroke-miterlimit: 10;
        stroke-width: 3px;
      }
    </style>
  </defs>
  <g class="cls-7">
    <g id="Layer_1" data-name="Layer 1">
      <g>
        <line class="cls-10" x1="214.36" y1="131.36" x2="408.64" y2="131.36"/>
        <g>
          <path class="cls-8" d="M216.55,141.18h.52c.49,0,.82.32.82.84,0,.46-.33.82-.82.82h-.52v3.84c0,.77.48.9,1,.94.45.04.69.36.69.85,0,.46-.33.77-.97.77-1.34,0-2.38-.77-2.38-2.54v-3.86c-.43-.06-.69-.4-.69-.82,0-.46.26-.78.69-.82v-2.44c0-.52.36-.84.82-.84.52,0,.84.32.84.84v2.43Z"/>
          <path class="cls-8" d="M222.88,141.74c.48-.49,1.2-.82,2.04-.82,2.09,0,3.42,1.59,3.42,3.67v3.81c0,.52-.32.84-.82.84-.48,0-.82-.32-.82-.84v-3.81c0-1.14-.68-2.02-1.86-2.02s-1.95.88-1.95,2.02v3.81c0,.52-.32.84-.84.84-.46,0-.82-.32-.82-.84v-9.66c0-.51.36-.82.82-.82.52,0,.84.32.84.82v3Z"/>
          <path class="cls-8" d="M240.06,145c0,.56-.3.85-.82.85h-5.86c.2,1.08,1.31,1.89,2.44,1.89.71,0,1.31-.26,1.78-.72.19-.17.43-.29.65-.29.43,0,.78.38.78.82,0,.23-.04.45-.22.62-.75.82-1.81,1.23-2.99,1.23-2.34,0-4.25-1.89-4.25-4.23s1.91-4.26,4.25-4.26,4.25,1.89,4.25,4.09ZM233.39,144.48h4.85c-.2-1.08-1.31-1.91-2.43-1.91s-2.2.84-2.43,1.91Z"/>
          <path class="cls-6" d="M251.29,138.65c3.05,0,5.53,2.18,5.53,5.26s-2.48,5.26-5.53,5.26h-1.73c-.46,0-.82-.32-.82-.84v-8.85c0-.49.36-.82.82-.82h1.73ZM250.4,147.5h.9c2.14,0,3.87-1.49,3.87-3.6s-1.73-3.6-3.87-3.6h-.9v7.19Z"/>
          <path class="cls-8" d="M261.69,139.89c0,.51-.32.82-.84.82-.46,0-.82-.32-.82-.82v-1.16c0-.51.36-.82.82-.82.52,0,.84.32.84.82v1.16ZM261.69,148.4c0,.52-.32.84-.84.84-.46,0-.82-.32-.82-.84v-6.18c0-.48.36-.82.82-.82.52,0,.84.35.84.82v6.18Z"/>
          <path class="cls-8" d="M271.7,142.04c.04-.64.29-.94.9-.94.4,0,.71.29.71.72v6.8c0,2.11-1.24,4.23-4.25,4.23-.59,0-.89-.32-.89-.84s.32-.84.84-.84c2.02,0,2.61-1.26,2.61-2.8-.49.65-1.31,1.03-2.44,1.03-2.21,0-4.25-1.91-4.25-4.25s2.04-4.25,4.25-4.25c1.02,0,2.01.55,2.53,1.13ZM271.62,145.16c0-1.43-1.05-2.58-2.46-2.58s-2.58,1.16-2.58,2.58,1.14,2.59,2.58,2.59,2.46-1.16,2.46-2.59Z"/>
          <path class="cls-8" d="M278.44,139.89c0,.51-.32.82-.84.82-.46,0-.82-.32-.82-.82v-1.16c0-.51.36-.82.82-.82.52,0,.84.32.84.82v1.16ZM278.44,148.4c0,.52-.32.84-.84.84-.46,0-.82-.32-.82-.84v-6.18c0-.48.36-.82.82-.82.52,0,.84.35.84.82v6.18Z"/>
          <path class="cls-8" d="M283.68,141.18h.52c.49,0,.82.32.82.84,0,.46-.33.82-.82.82h-.52v3.84c0,.77.48.9,1,.94.45.04.69.36.69.85,0,.46-.33.77-.97.77-1.34,0-2.38-.77-2.38-2.54v-3.86c-.43-.06-.69-.4-.69-.82,0-.46.26-.78.69-.82v-2.44c0-.52.36-.84.82-.84.52,0,.84.32.84.84v2.43Z"/>
          <path class="cls-8" d="M295.89,148.4c0,.52-.32.84-.84.84-.46,0-.82-.32-.82-.84v-.04c-.52.55-1.49,1.05-2.47,1.05-2.47,0-4.25-1.89-4.25-4.23s1.81-4.26,4.25-4.26c1.07,0,1.92.39,2.47,1.01,0-.49.36-.82.82-.82.52,0,.84.33.84.82v6.47ZM289.18,145.18c0,1.42,1.14,2.57,2.58,2.57s2.46-1.16,2.46-2.57-1.05-2.6-2.46-2.6-2.58,1.16-2.58,2.6Z"/>
          <path class="cls-8" d="M301.03,148.4c0,.52-.32.84-.84.84-.46,0-.82-.32-.82-.84v-9.66c0-.51.36-.82.82-.82.52,0,.84.32.84.82v9.66Z"/>
          <path class="cls-6" d="M319.95,142.82c.48,0,.81.25.81.81,0,3.11-2.47,5.53-5.52,5.53s-5.5-2.18-5.5-5.26,2.51-5.52,5.53-5.52c1.53,0,3.03.61,4.01,1.66.17.19.26.35.26.59,0,.49-.32.82-.81.82-.23,0-.49-.12-.69-.35-.62-.65-1.65-1.07-2.77-1.07-2.12,0-3.87,1.73-3.87,3.86s1.7,3.6,3.84,3.6c1.92,0,3.51-1.31,3.83-3.12h-3.8c-.46,0-.82-.26-.82-.78,0-.48.36-.78.82-.78h4.68Z"/>
          <path class="cls-9" d="M332.19,145c0,.56-.3.85-.82.85h-5.86c.2,1.08,1.31,1.89,2.44,1.89.71,0,1.31-.26,1.78-.72.19-.17.43-.29.65-.29.43,0,.78.38.78.82,0,.23-.04.45-.22.62-.75.82-1.81,1.23-2.99,1.23-2.34,0-4.25-1.89-4.25-4.23s1.91-4.26,4.25-4.26,4.25,1.89,4.25,4.09ZM325.52,144.48h4.85c-.2-1.08-1.31-1.91-2.43-1.91s-2.2.84-2.43,1.91Z"/>
          <path class="cls-9" d="M336.94,141.83c.51-.55,1.26-.91,2.15-.91,2.09,0,3.42,1.59,3.42,3.67v3.83c0,.52-.32.82-.82.82-.48,0-.82-.3-.82-.82v-3.83c0-1.13-.69-2.02-1.86-2.02s-1.95.88-1.95,2.02v3.83c0,.52-.32.82-.84.82-.46,0-.82-.3-.82-.82v-6.59c0-.45.32-.72.71-.72.48,0,.75.23.84.72Z"/>
          <path class="cls-9" d="M354.24,145c0,.56-.3.85-.82.85h-5.86c.2,1.08,1.31,1.89,2.44,1.89.71,0,1.31-.26,1.78-.72.19-.17.43-.29.65-.29.43,0,.78.38.78.82,0,.23-.04.45-.22.62-.75.82-1.8,1.23-2.99,1.23-2.34,0-4.25-1.89-4.25-4.23s1.91-4.26,4.25-4.26,4.25,1.89,4.25,4.09ZM347.57,144.48h4.85c-.2-1.08-1.31-1.91-2.43-1.91s-2.19.84-2.43,1.91Z"/>
          <path class="cls-9" d="M359,141.94c.56-.61,1.2-.87,2.05-.87.48,0,.84.25.84.82,0,.46-.23.77-.72.79-1.66.1-2.07.81-2.07,1.98v3.8c0,.42-.33.77-.82.77s-.84-.35-.84-.78v-6.44c0-.51.22-.91.82-.91.48,0,.69.32.74.84Z"/>
          <path class="cls-9" d="M372.24,148.4c0,.52-.32.84-.84.84-.46,0-.82-.32-.82-.84v-.04c-.52.55-1.49,1.05-2.47,1.05-2.47,0-4.25-1.89-4.25-4.23s1.8-4.26,4.25-4.26c1.07,0,1.92.39,2.47,1.01,0-.49.36-.82.82-.82.52,0,.84.33.84.82v6.47ZM365.53,145.18c0,1.42,1.14,2.57,2.58,2.57s2.46-1.16,2.46-2.57-1.05-2.6-2.46-2.6-2.58,1.16-2.58,2.6Z"/>
          <path class="cls-9" d="M377.45,141.18h.52c.49,0,.82.32.82.84,0,.46-.33.82-.82.82h-.52v3.84c0,.77.48.9,1,.94.45.04.69.36.69.85,0,.46-.33.77-.97.77-1.34,0-2.38-.77-2.38-2.54v-3.86c-.43-.06-.69-.4-.69-.82,0-.46.26-.78.69-.82v-2.44c0-.52.36-.84.82-.84.52,0,.84.32.84.84v2.43Z"/>
          <path class="cls-9" d="M383.78,139.89c0,.51-.32.82-.84.82-.46,0-.82-.32-.82-.82v-1.16c0-.51.36-.82.82-.82.52,0,.84.32.84.82v1.16ZM383.78,148.4c0,.52-.32.84-.84.84-.46,0-.82-.32-.82-.84v-6.18c0-.48.36-.82.82-.82.52,0,.84.35.84.82v6.18Z"/>
          <path class="cls-9" d="M395.5,145.18c0,2.34-1.89,4.23-4.25,4.23s-4.25-1.89-4.25-4.23,1.91-4.26,4.25-4.26,4.25,1.92,4.25,4.26ZM388.67,145.18c0,1.42,1.14,2.57,2.58,2.57s2.59-1.16,2.59-2.57-1.17-2.6-2.59-2.6-2.58,1.16-2.58,2.6Z"/>
          <path class="cls-9" d="M400.25,141.83c.51-.55,1.26-.91,2.15-.91,2.09,0,3.42,1.59,3.42,3.67v3.83c0,.52-.32.82-.82.82-.48,0-.82-.3-.82-.82v-3.83c0-1.13-.69-2.02-1.86-2.02s-1.95.88-1.95,2.02v3.83c0,.52-.32.82-.84.82-.46,0-.82-.3-.82-.82v-6.59c0-.45.32-.72.71-.72.48,0,.75.23.84.72Z"/>
        </g>
        <g>
          <polygon class="cls-9" points="308.51 90.64 328.58 90.64 328.58 74.28 308.51 74.28 308.51 57.91 331.46 57.91 331.46 41.55 293.25 41.55 293.25 123.37 332.74 123.37 332.74 107.01 308.51 107.01 308.51 90.64"/>
          <path class="cls-9" d="M266.61,82.4h-22.2v16.47h12.97v8.13c-1.39.23-2.88.46-4.27.46-29.46,0-30.84-48.87,0-50.01,8.11-.23,13.02,1.6,16.01,2.98l1.82-16.6c-1.39-.46-8.75-3.32-17.82-2.97-52.94,2.06-50.37,82.97,0,82.97,7.26,0,13.87-1.95,19.74-5.49v-35.94h-6.24Z"/>
          <g>
            <polygon class="cls-9" points="393.27 87.9 354.74 39.83 350.68 39.83 350.68 123.37 365.95 123.37 365.95 78.86 404.58 125.09 408.64 125.09 408.64 54.4 393.27 54.4 393.27 87.9"/>
            <rect class="cls-6" x="393.27" y="39.83" width="15.37" height="12.73"/>
          </g>
        </g>
        <g>
          <path class="cls-6" d="M194.79,87.69c.16-33.35-22.34-60.55-50.01-60.55h-53.43v21.61c0,6.09,2.05,11.6,5.37,15.59,3.31,3.99,7.89,6.46,12.95,6.46v-21.61h34.63c17.39,0,31.9,16.62,32.16,37.55.27,21.3-14.04,38.74-31.68,38.74h-30.21c-2.7,0-4.9-2.19-4.9-4.9v-44.27c-9.52,0-17.35,8.75-18.23,19.93-.06.7-.09,1.41-.09,2.12v49.17h52.88c27.59,0,50.39-26.63,50.55-59.84Z"/>
          <path class="cls-4" d="M109.68,99.77v-3.53h-18.23c-.06.7-.09,1.41-.09,2.12v18.44c2.67-4.4,8.52-12.29,18.32-17.03Z"/>
          <g class="cls-3">
            <path class="cls-6" d="M176.47,85.04c-.27-20.93-14.78-37.55-32.16-37.55h-34.63v1.7h34.63c17.34,0,31.82,16.53,32.16,37.37,0-.51,0-1.01,0-1.53ZM194.79,87.69c0-.37,0-.74,0-1.1-.43,32.93-23.12,59.24-50.54,59.24h-52.88v1.7h52.88c27.59,0,50.39-26.63,50.55-59.84Z"/>
          </g>
          <g class="cls-2">
            <path class="cls-6" d="M194.79,87.69c.16-33.35-22.34-60.55-50.01-60.55h-12.44c27.67,0,50.17,27.2,50.01,60.55-.16,33.21-22.96,59.84-50.55,59.84h12.44c27.59,0,50.39-26.63,50.55-59.84Z"/>
          </g>
          <path class="cls-6" d="M134.77,67.5v8.81h-25.09c-6.78,0-12.7,4.43-15.87,11.02-1.56,3.25-2.45,7.01-2.45,11.02h43.41v8.81l19.2-19.84-19.2-19.84Z"/>
          <path class="cls-1" d="M153.97,87.33h-60.16c-1.56,3.25-2.45,7.01-2.45,11.02h43.41v8.81l19.2-19.84Z"/>
          <path class="cls-5" d="M91.36,98.36h43.41v-1.06h-43.39c-.01.35-.02.71-.02,1.06Z"/>
          <polygon class="cls-5" points="153.97 87.33 152.95 87.33 134.77 106.12 134.77 107.17 153.97 87.33"/>
        </g>
      </g>
    </g>
  </g>
</svg>